<svg xmlns="http://www.w3.org/2000/svg" viewBox="0 0 64 64">
  <!-- Card background -->
  <rect width="64" height="64" rx="6" fill="white"/>
  
  <!-- Border -->
  <rect x="2" y="2" width="60" height="60" rx="4" fill="none" stroke="#e5e5e5" stroke-width="2"/>
  
  <!-- Top K -->
  <text x="8" y="18" font-family="serif" font-size="14" font-weight="bold" fill="#DC143C">K</text>
  
  <!-- Heart symbol in center -->
  <path d="M 32 42 C 32 42, 24 34, 24 28 C 24 24, 26 22, 28 22 C 30 22, 32 24, 32 26 C 32 24, 34 22, 36 22 C 38 22, 40 24, 40 28 C 40 34, 32 42, 32 42 Z" fill="#DC143C"/>
  
  <!-- Bottom K (upside down) -->
  <text x="56" y="58" font-family="serif" font-size="14" font-weight="bold" fill="#DC143C" transform="rotate(180 56 56)">K</text>
  
  <!-- Small heart top left -->
  <path d="M 18 13 C 18 13, 15 11, 15 9 C 15 8, 15.5 7.5, 16 7.5 C 16.5 7.5, 17 8, 17 8.5 C 17 8, 17.5 7.5, 18 7.5 C 18.5 7.5, 19 8, 19 9 C 19 11, 16 13, 16 13 Z" fill="#DC143C" transform="translate(2 2)"/>
  
  <!-- Small heart bottom right (upside down) -->
  <path d="M 18 13 C 18 13, 15 11, 15 9 C 15 8, 15.5 7.5, 16 7.5 C 16.5 7.5, 17 8, 17 8.5 C 17 8, 17.5 7.5, 18 7.5 C 18.5 7.5, 19 8, 19 9 C 19 11, 16 13, 16 13 Z" fill="#DC143C" transform="translate(28 38) rotate(180 16 10)"/>
</svg>
